<svg xmlns="http://www.w3.org/2000/svg" width="501" height="439" fill="none" viewBox="0 0 501 439"><path fill="#FEA77C" d="M284.78 18.8155C285.325 22.7661 284.406 27.0914 281.545 29.8841C280.659 30.7355 279.569 31.4167 278.411 31.8254C275.789 32.7449 272.792 32.5065 270.715 30.7015V30.6674C272.349 29.85 273.78 28.624 274.767 27.1254C277.322 23.3451 277.56 18.4749 276.811 13.9793C276.572 12.6171 276.232 11.2548 275.721 9.99466C278.037 9.58597 280.455 10.6417 282.022 12.3787C283.622 14.1156 284.44 16.4655 284.78 18.8155Z"/><path fill="#FEA77C" d="M253.175 29.1008C254.742 28.7261 256.308 28.2493 257.773 27.5682L257.807 27.6703C257.739 29.1007 257.16 30.4971 256.274 31.5869C255.695 32.3021 254.98 32.8811 254.163 33.3238H254.129C254.027 31.8934 253.72 30.463 253.175 29.1008Z"/><path fill="#FEA77C" d="M266.968 18.543C267.241 21.9827 267.002 25.6609 265.095 28.5558C264.516 29.4413 263.733 30.1905 262.847 30.8036C260.872 32.1318 258.386 32.6427 256.308 31.6209C257.228 30.497 257.773 29.1348 257.841 27.7044L257.807 27.6022C258.965 27.0573 260.055 26.3761 260.974 25.4566C263.052 23.4472 264.039 20.0755 262.609 17.5553C262.132 16.7379 261.417 16.0568 260.497 15.8524C259.68 15.6821 258.829 15.9546 258.045 16.193C257.092 16.4995 256.172 16.806 255.219 17.1125C254.469 14.2858 253.618 11.459 252.017 9.00693C250.893 7.30406 249.327 5.83959 247.522 4.95411L247.556 4.85194C250.416 2.39982 254.095 0.152038 257.773 1.00347C260.225 1.54838 262.03 3.2853 263.358 5.46496C264.244 6.86131 264.891 8.46201 265.368 10.0286C266.185 12.7873 266.73 15.6481 266.968 18.543Z"/><path fill="#FEA77C" d="M275.721 9.96051C276.232 11.2547 276.572 12.617 276.811 13.9452C277.594 18.4067 277.322 23.3109 274.767 27.0913C273.746 28.5898 272.315 29.8159 270.715 30.6333C268.262 31.8593 265.368 32.1318 262.915 30.8717L262.847 30.7695C263.733 30.1905 264.516 29.4072 265.095 28.5217C267.002 25.6609 267.241 21.9827 266.968 18.5089C266.73 15.614 266.185 12.7532 265.334 9.99457C264.857 8.42794 264.176 6.86131 263.324 5.43091L263.767 5.15844C266.049 2.84255 270.136 3.25124 272.622 5.36279C274.018 6.58885 275.04 8.2236 275.721 9.96051Z"/><path fill="#FEA77C" d="M255.15 17.1124C256.104 16.8059 257.024 16.4994 257.977 16.1929C258.76 15.9545 259.612 15.682 260.429 15.8523C261.349 16.0226 262.098 16.7378 262.541 17.5552C264.005 20.0413 262.984 23.413 260.906 25.4564C259.986 26.3419 258.897 27.0571 257.739 27.602C256.274 28.2832 254.708 28.76 253.141 29.1346C253.652 30.4969 253.992 31.8933 254.095 33.3577H254.129C254.946 32.949 255.661 32.336 256.24 31.6208C258.352 32.6085 260.838 32.1317 262.779 30.8034L262.847 30.9056C265.265 32.1657 268.16 31.8932 270.646 30.6672V30.7012C272.724 32.5063 275.721 32.7787 278.343 31.8251L278.377 31.9273C278.82 34.3454 278.616 36.8656 277.867 39.1815C276.777 42.451 274.563 45.2437 273.609 48.5472C272.996 50.7269 272.962 53.0428 273.473 55.563C262.371 56.7891 251.029 56.0058 240.165 53.2812V53.2131C239.041 47.2531 235.976 41.838 233.49 36.2866C231.004 30.7353 228.994 24.6391 230.118 18.645C230.936 14.3878 233.32 10.5053 236.555 7.57638C238.667 5.66918 241.323 4.10254 244.15 4.17066C245.274 4.20472 246.364 4.47717 247.351 4.95397C249.156 5.8054 250.723 7.30393 251.847 9.00679C253.55 11.4589 254.401 14.2857 255.15 17.1124Z"/><path fill="#FEA77C" d="M40.6579 31.3485C39.8746 32.8811 39.2615 34.5158 38.8869 36.1846C37.2862 36.1165 35.7196 35.4013 34.6638 34.2093L34.5616 34.1753C34.8682 33.6304 35.1406 33.0514 35.345 32.4724C37.1841 32.3362 38.9891 31.7913 40.6579 31.3485Z"/><path fill="#FEA77C" d="M16.341 14.1155C16.7837 14.2858 17.2265 14.5583 17.6011 14.8307C18.8272 15.7843 19.6105 17.1807 20.2916 18.543C22.0285 21.9828 23.4249 25.6269 24.4466 29.3391C25.1959 32.0977 25.6727 35.3332 23.9017 37.581C23.8676 37.615 23.8676 37.6491 23.8336 37.6491C22.0626 39.8628 18.8953 40.1693 16.0345 40.2034C16.1707 39.999 16.2729 39.7947 16.341 39.5903C16.7497 38.5346 16.6815 37.3426 16.5113 36.2187C15.8642 31.1782 13.8207 26.308 10.6534 22.2893C9.93821 21.4038 9.12084 20.5183 8.13318 20.0415L8.23535 19.8031C8.50781 17.4531 9.32518 15.2394 11.607 14.1496C13.1396 13.5365 14.8765 13.5025 16.341 14.1155Z"/><path fill="#FEA77C" d="M39.3637 10.0286C42.9397 13.3663 45.1534 16.9082 46.7541 21.54C45.9368 21.54 45.0853 21.6081 44.2339 21.7103L34.8341 22.6639C34.4254 22.6979 34.0167 22.7661 33.608 22.8001C32.8588 20.0074 31.6668 17.3509 30.0661 14.9329C29.4871 14.0815 28.8741 13.2641 28.1929 12.5489L28.3973 12.3445C29.8617 10.233 32.2117 8.76852 34.766 8.39389C35.5834 8.25766 36.4688 8.25766 37.2522 8.56417C38.0014 8.83663 38.6826 9.44967 39.3637 10.0286Z"/><path fill="#FEA77C" d="M32.2117 32.2339C33.2334 32.5064 34.2891 32.5404 35.3449 32.4723C35.1406 33.0513 34.8681 33.6303 34.5616 34.1752C33.5739 35.9462 32.2117 37.4787 30.4066 38.2961C28.3632 39.2497 25.7408 39.1135 23.9698 37.7853L23.8676 37.6831C23.9017 37.649 23.9017 37.615 23.9357 37.615C25.6727 35.3672 25.2299 32.1317 24.4807 29.3731C23.4589 25.6609 22.0626 22.0167 20.3257 18.577C19.6105 17.2147 18.8272 15.8183 17.6352 14.8647C17.2265 14.5582 16.8178 14.3198 16.375 14.1495C17.3967 12.6169 18.4866 11.0163 20.1554 10.267C21.9604 9.44962 24.1401 9.75613 25.877 10.7438C26.7284 11.2206 27.4777 11.8677 28.1588 12.5488C28.874 13.264 29.4871 14.1155 30.032 14.9328C31.6327 17.3509 32.8247 20.0074 33.5739 22.8001C31.4624 23.1066 29.3168 23.7877 28.3972 25.6268C27.069 28.2492 29.3849 31.4847 32.2117 32.2339Z"/><path fill="#FEA77C" d="M16.0685 40.2715C18.9293 40.2374 22.0967 39.8969 23.8676 37.7172L23.9698 37.8194C25.7408 39.1817 28.3632 39.3179 30.4066 38.3302C32.2117 37.4788 33.5739 35.9462 34.5616 34.2093L34.6638 34.2434C35.7196 35.4354 37.2862 36.1506 38.8869 36.2187C39.2615 34.5499 39.8405 32.9151 40.6579 31.3826C38.989 31.7912 37.184 32.3362 35.3449 32.5065C34.2892 32.6086 33.2334 32.5405 32.2117 32.2681C29.3849 31.5188 27.035 28.2493 28.3632 25.6609C29.2827 23.8219 31.4283 23.1407 33.5399 22.8342C33.9486 22.7661 34.3913 22.732 34.766 22.698L44.1658 21.7444C44.9831 21.6763 45.8346 21.5741 46.686 21.5741C47.5034 21.5741 48.3548 21.6763 49.1381 21.9147C52.3395 22.9704 54.0764 26.5464 54.2467 29.884C54.417 33.2557 53.3612 36.5252 52.6801 39.7947C51.1475 47.3895 51.6583 55.3929 54.2126 62.7152C41.6455 66.4275 30.1682 69.2202 17.1924 69.1861C17.1243 68.8115 17.0221 68.4368 16.954 68.0622C16.1707 64.7927 14.7403 61.7276 12.765 59.003C10.9599 56.4827 8.6781 54.3371 6.7709 51.885C0.981164 44.4265 -1.30067 34.3455 0.776821 25.1501C1.04928 23.5494 2.17317 21.9146 3.67169 20.8248C4.76152 20.0415 6.08975 19.5647 7.38393 19.8372C7.65638 19.9053 7.89478 19.9734 8.16724 20.1096C9.18896 20.5864 10.0063 21.4719 10.6875 22.3574C13.8207 26.3761 15.8982 31.2463 16.5453 36.2868C16.6816 37.4107 16.7837 38.6027 16.375 39.6585C16.3069 39.8628 16.2048 40.0672 16.0685 40.2715Z"/><path fill="#323B6E" d="M122.089 366.812C113.438 340.077 97.6697 316.748 81.6968 293.453L81.5947 293.521C78.0527 296.927 76.3839 299.924 74.7151 304.522C71.3434 313.751 71.6159 323.934 72.9782 333.641C75.7368 353.394 82.6504 372.296 89.53 390.993C92.3227 398.554 95.0813 406.08 97.874 413.641L126.925 413.675H136.529L122.089 366.812Z"/><path fill="#323B6E" d="M221.808 136.517C215.303 140.536 206.925 142.103 198.752 142.409C193.677 142.579 188.637 142.341 183.596 142.103C181.314 142 178.794 141.626 176.512 141.796C174.639 141.932 161.186 144.078 152.502 157.837C152.195 158.314 151.889 158.757 151.582 159.233C146.031 168.19 143.681 179.463 146.474 189.613C146.576 190.021 146.406 190.498 146.133 190.839C145.827 191.179 145.418 191.349 145.009 191.52C144.192 191.826 143.238 191.894 142.421 191.622C141.569 191.349 140.854 190.668 140.684 189.783C139.117 187.399 136.665 185.594 133.941 185.185C132.953 185.015 131.965 185.049 130.978 185.219C130.705 184.64 130.399 184.027 130.126 183.448C124.541 169.961 121.918 154.431 128.662 141.966C133.941 132.226 144.056 126.028 154.409 122.077C164.762 118.126 175.763 115.981 186.014 111.758C192.519 107.5 199.978 103.584 208.049 103.073C213.09 102.767 218.164 103.788 222.694 106.07C224.737 107.092 226.679 108.386 228.177 110.089C231.208 113.529 232.196 118.535 231.31 123.031C230.425 127.526 227.768 131.579 224.431 134.712C223.545 135.393 222.694 135.972 221.808 136.517Z"/><path fill="#FEA77C" fill-rule="evenodd" d="M139.594 206.164C135.78 207.765 131.08 207.288 127.776 204.768C123.724 201.669 122.123 195.743 124.03 191.009C124.541 189.715 125.324 188.523 126.312 187.535C127.572 186.309 129.207 185.491 130.944 185.185C131.931 185.015 132.919 184.981 133.907 185.151C136.631 185.594 139.083 187.365 140.65 189.749C140.82 190.6 141.57 191.315 142.387 191.588C143.238 191.86 144.158 191.758 144.975 191.486C145.384 191.349 145.793 191.145 146.099 190.804C146.406 190.464 146.576 190.021 146.44 189.578C143.647 179.429 145.997 168.156 151.548 159.199C151.855 158.722 152.161 158.28 152.468 157.803C161.152 144.078 174.605 141.932 176.478 141.762C178.76 141.592 181.246 141.966 183.562 142.068C188.603 142.307 193.677 142.545 198.718 142.375C206.857 142.068 215.269 140.502 221.774 136.483C223.579 143.124 225.418 149.765 227.224 156.407C234.205 181.915 235.67 201.737 231.379 215.292C228.892 223.125 224.499 228.88 218.164 232.49C211.148 236.475 203.247 238.757 195.176 239.37C195.618 241.345 196.197 243.287 196.878 245.16C197.594 247.135 198.445 249.144 199.944 250.643C200.114 250.813 200.284 250.949 200.455 251.086C195.278 257.591 186.321 260.383 178.079 259.362C169.735 258.306 162.14 253.776 156.078 247.952L155.567 247.85C155.874 246.147 155.363 244.342 154.852 242.674C151.003 230.106 145.52 218.118 140.003 206.198L139.594 206.164Z" clip-rule="evenodd"/><path fill="#323B6E" d="M428.457 425.726L427.128 378.932C426.039 378.353 425.289 377.229 425.255 375.934C425.221 374.027 426.788 372.461 428.729 372.427C429.036 372.427 429.342 372.461 429.649 372.563L494.187 306.56C493.983 306.117 493.881 305.64 493.847 305.129C493.847 304.38 494.085 303.699 494.494 303.12L400.53 179.594C401.483 179.084 402.471 178.607 403.459 178.062L497.457 301.622C499.33 301.656 500.862 303.154 500.896 305.027C500.93 306.934 499.364 308.501 497.423 308.535C497.218 308.535 497.014 308.501 496.844 308.467L432.067 374.742C432.203 375.117 432.271 375.458 432.271 375.866C432.271 377.229 431.488 378.387 430.364 378.966L431.692 425.692L431.76 428.689L431.862 431.925C431.896 432.81 431.181 433.559 430.296 433.593C430.296 433.593 430.296 433.593 430.262 433.593C429.376 433.593 428.661 432.912 428.627 432.027L428.525 428.723L428.457 425.726Z"/><path fill="#323B6E" d="M431.76 428.689C447.256 428.689 459.517 430.767 459.551 433.457C459.585 436.25 446.303 438.668 429.853 438.872C413.437 439.043 400.087 436.931 400.053 434.138C400.019 431.414 412.654 429.03 428.491 428.757L428.593 432.061C428.627 432.946 429.342 433.662 430.228 433.628H430.262C431.147 433.593 431.862 432.844 431.828 431.959L431.76 428.689Z"/><path fill="#52DEE5" d="M365.417 177.142C373.352 189.437 375.055 202.447 369.231 206.227C363.407 210.008 352.237 203.094 344.301 190.799C336.366 178.505 334.663 165.495 340.487 161.715C346.311 157.934 357.481 164.848 365.417 177.142Z"/><path fill="#fff" d="M368.74 189.857C375.256 188.799 379.682 182.659 378.624 176.142C377.567 169.625 371.426 165.199 364.909 166.257C358.393 167.315 353.967 173.455 355.025 179.972C356.082 186.489 362.223 190.914 368.74 189.857Z"/><path fill="#323B6E" d="M400.564 179.595C396.409 181.706 392.254 183.75 387.792 186.338C385.272 187.802 382.752 189.267 380.708 191.31C376.281 195.772 374.476 202.685 369.265 206.227L369.231 206.193C375.055 202.447 373.352 189.403 365.417 177.108C357.481 164.814 346.311 157.9 340.487 161.68C344.131 158.309 349.376 158.207 354.246 157.491C366.541 155.618 377.064 148.023 387.69 141.519C390.313 139.918 393.105 138.317 396.17 138.419C399.44 138.521 402.301 140.497 404.719 142.711C409.419 147.036 416.026 156.674 416.128 167.504C415.89 170.127 414.459 171.625 411.769 173.328C408.908 175.133 406.183 176.666 403.493 178.096C402.505 178.607 401.517 179.118 400.564 179.595ZM394.502 177.551C395.421 177.074 395.796 175.95 395.319 174.997C394.842 174.077 393.718 173.703 392.765 174.145L386.021 177.585C385.102 178.062 384.727 179.186 385.204 180.139C385.681 181.059 386.805 181.434 387.758 180.957L394.502 177.551ZM391.13 169.377C392.049 168.901 392.424 167.777 391.947 166.823C391.47 165.904 390.347 165.529 389.393 166.006L382.65 169.445C381.73 169.922 381.356 171.046 381.798 172C382.275 172.919 383.399 173.294 384.353 172.817L391.13 169.377ZM386.294 162.123C387.213 161.646 387.588 160.522 387.111 159.569C386.634 158.649 385.51 158.275 384.557 158.717L377.814 162.157C376.894 162.634 376.519 163.758 376.996 164.712C377.473 165.631 378.597 166.006 379.55 165.529L386.294 162.123ZM380.947 155.414C381.866 154.937 382.241 153.813 381.764 152.86C381.287 151.94 380.164 151.565 379.21 152.042L372.467 155.482C371.547 155.959 371.172 157.083 371.649 158.036C372.126 158.956 373.25 159.33 374.203 158.888L380.947 155.414Z"/><path fill="#5296E5" d="M395.319 175.031C395.796 175.95 395.421 177.108 394.502 177.585L387.758 181.025C386.839 181.502 385.681 181.127 385.204 180.207C384.727 179.288 385.102 178.13 386.021 177.653L392.765 174.213C393.718 173.703 394.842 174.077 395.319 175.031Z"/><path fill="#5296E5" d="M391.981 166.823C392.458 167.743 392.083 168.901 391.164 169.377L384.421 172.817C383.501 173.294 382.343 172.919 381.866 172C381.39 171.08 381.764 169.922 382.718 169.445L389.461 166.006C390.347 165.529 391.505 165.903 391.981 166.823Z"/><path fill="#5296E5" d="M387.145 159.569C387.622 160.488 387.247 161.646 386.328 162.123L379.585 165.563C378.665 166.04 377.507 165.665 377.03 164.746C376.553 163.826 376.928 162.668 377.848 162.191L384.591 158.751C385.545 158.275 386.668 158.615 387.145 159.569Z"/><path fill="#5296E5" d="M381.764 152.859C382.241 153.779 381.866 154.937 380.947 155.414L374.203 158.854C373.284 159.33 372.126 158.956 371.649 158.002C371.172 157.083 371.547 155.925 372.467 155.448L379.21 152.008C380.164 151.565 381.287 151.94 381.764 152.859Z"/><path fill="#5296E5" d="M272.52 334.969C271.804 332.04 271.123 329.145 270.442 326.216C272.758 284.394 293.874 215.871 293.363 173.163C292.852 130.455 286.074 98.7137 274.086 57.7088C273.848 56.9596 273.678 56.2443 273.541 55.5291C262.439 56.7552 251.098 55.9719 240.233 53.2473C240.165 53.2133 240.063 53.2133 239.995 53.1792C244.422 88.769 243.98 124.597 241.153 160.119C239.654 178.782 237.441 197.65 231.753 215.428C230.221 220.264 228.415 224.998 226.304 229.664C221.979 239.2 215.61 248.77 205.767 252.244C203.996 252.925 201.987 252.312 200.489 251.12C195.312 257.625 186.355 260.418 178.113 259.396C169.769 258.34 162.174 253.81 156.112 247.987L155.601 247.884C155.567 248.021 155.567 248.157 155.533 248.259C155.09 250.098 153.319 251.733 151.48 251.392L151.276 251.46C128.662 238.621 119.466 224.249 108.67 206.403C97.84 188.523 90.0749 169.008 82.8548 149.425C72.3311 120.851 62.7951 91.9023 54.3829 62.6471L54.2127 62.6812C41.6455 66.3934 30.1683 69.1861 17.1924 69.152C17.1243 68.7774 17.0222 68.4028 16.954 68.0282C17.2265 70.5484 22.6416 190.396 50.0917 243.253C59.185 260.758 70.5261 277.106 81.7309 293.453C97.7038 316.748 113.472 340.077 122.123 366.812V366.88C122.123 366.88 122.123 366.88 122.157 366.88L136.563 413.743L164.728 413.811L291.558 413.982V413.811C285.189 387.519 278.854 361.227 272.52 334.969Z"/><path fill="#5296E5" d="M128.525 194.993C128.423 194.993 128.321 194.959 128.253 194.925C128.015 194.789 127.947 194.449 128.083 194.21C128.764 193.154 129.82 192.405 131.012 192.133C132.204 191.86 133.532 192.065 134.588 192.678C134.826 192.814 134.894 193.154 134.758 193.393C134.622 193.631 134.281 193.699 134.043 193.563C133.225 193.052 132.204 192.916 131.25 193.12C130.296 193.359 129.445 193.938 128.934 194.755C128.866 194.925 128.696 194.993 128.525 194.993Z"/><path fill="#323B6E" d="M255.15 17.6234C254.912 17.6234 254.708 17.4872 254.64 17.2488C253.856 14.422 253.039 11.6634 251.472 9.31345C250.348 7.61058 248.816 6.24829 247.181 5.46497C246.909 5.32874 246.806 5.02223 246.943 4.78383C247.079 4.51137 247.385 4.4092 247.624 4.54543C249.429 5.39686 251.098 6.89538 252.324 8.76853C253.958 11.2547 254.81 14.0815 255.627 17.0104C255.695 17.2828 255.525 17.5553 255.253 17.6575C255.219 17.6234 255.184 17.6234 255.15 17.6234Z"/><path fill="#323B6E" d="M251.336 44.0518C251.234 44.0518 251.132 44.0177 251.029 43.9496C250.791 43.7793 250.757 43.4728 250.927 43.2344C253.754 39.2837 254.435 33.8346 252.698 29.305C252.63 29.1687 252.664 28.9985 252.732 28.8963C252.8 28.7601 252.937 28.6579 253.073 28.6238C255.661 27.9767 258.556 27.0572 260.6 25.0819C262.37 23.3449 263.528 20.2117 262.132 17.8277C261.689 17.0444 261.042 16.5335 260.361 16.3973C259.646 16.261 258.863 16.4994 258.181 16.7378L247.113 20.2798C245.035 20.9269 242.89 21.6421 241.085 22.8341C239.109 24.1283 237.815 25.9674 237.543 27.8405C237.509 28.113 237.236 28.3173 236.964 28.2832C236.691 28.2492 236.487 27.9767 236.521 27.7043C236.862 25.5587 238.292 23.4812 240.506 22.0167C242.447 20.7225 244.661 20.0073 246.806 19.3262L257.875 15.7842C258.658 15.5458 259.612 15.2393 260.565 15.4096C261.519 15.614 262.439 16.2951 263.018 17.3509C264.686 20.2117 263.426 23.7877 261.315 25.8652C259.271 27.8746 256.445 28.8622 253.89 29.5434C255.491 34.2773 254.708 39.8287 251.813 43.8815C251.642 43.9496 251.506 44.0518 251.336 44.0518Z"/><path fill="#323B6E" d="M243.401 21.5059C243.196 21.5059 242.992 21.3696 242.924 21.1653C242.345 19.3943 241.425 17.7596 240.233 16.3292C240.063 16.1248 240.097 15.7843 240.301 15.614C240.506 15.4437 240.846 15.4777 241.017 15.6821C242.277 17.2147 243.264 18.9516 243.877 20.8588C243.98 21.1312 243.809 21.4037 243.537 21.5059C243.503 21.5059 243.435 21.5059 243.401 21.5059Z"/><path fill="#323B6E" d="M254.129 33.8345C253.958 33.8345 253.754 33.7324 253.686 33.5621C253.55 33.3237 253.652 33.0172 253.924 32.8809C255.866 31.8933 257.194 29.8498 257.296 27.6702C257.296 27.3977 257.569 27.1593 257.841 27.1934C258.113 27.1934 258.352 27.4658 258.318 27.7383C258.182 30.2926 256.649 32.6766 254.367 33.8345C254.299 33.8345 254.197 33.8345 254.129 33.8345Z"/><path fill="#323B6E" d="M258.658 32.6427C257.739 32.6427 256.887 32.4724 256.138 32.1319C255.866 32.0297 255.763 31.7232 255.866 31.4507C255.968 31.1783 256.274 31.0761 256.547 31.1783C259.442 32.5065 262.984 30.6674 264.618 28.2494C266.151 25.9335 266.764 22.7661 266.423 18.5771C266.185 15.7503 265.64 12.9236 264.789 10.199C264.278 8.49615 263.597 7.03169 262.813 5.77157C262.677 5.53317 262.745 5.22666 262.984 5.05637C263.222 4.92014 263.528 4.98826 263.699 5.22666C264.516 6.55489 265.231 8.12152 265.776 9.89249C266.662 12.6852 267.207 15.5801 267.445 18.509C267.786 22.9364 267.139 26.3081 265.47 28.8283C263.733 31.4507 261.042 32.6427 258.658 32.6427Z"/><path fill="#323B6E" d="M266.355 32.234C265.095 32.234 263.835 31.9615 262.643 31.3485C262.405 31.2123 262.302 30.9057 262.439 30.6673C262.575 30.4289 262.881 30.3268 263.12 30.463C266.253 32.0637 271.396 31.1441 274.325 26.8529C277.049 22.8001 276.879 17.6915 276.266 14.0815C275.959 12.3445 275.517 10.7779 274.938 9.5178C274.836 9.24534 274.938 8.93883 275.21 8.83666C275.483 8.73448 275.789 8.83665 275.891 9.10911C276.504 10.5055 276.981 12.0721 277.288 13.9452C277.935 17.7256 278.105 23.1066 275.176 27.466C273.303 30.1224 269.863 32.234 266.355 32.234Z"/><path fill="#323B6E" d="M275.38 32.847C273.473 32.847 271.702 32.234 270.34 31.042C270.136 30.8717 270.102 30.5311 270.306 30.3268C270.476 30.1225 270.817 30.0884 271.021 30.2927C272.826 31.8594 275.585 32.2681 278.207 31.3145C278.48 31.2123 278.752 31.3485 278.854 31.621C278.956 31.8934 278.82 32.1659 278.548 32.2681C277.492 32.6768 276.436 32.847 275.38 32.847Z"/><path fill="#323B6E" d="M273.099 69.1521C271.634 69.118 270.238 69.118 268.876 69.084C262.643 69.0158 257.228 68.9818 248.782 67.5173L249.054 65.9847C257.364 67.4492 262.711 67.4833 268.876 67.5514C270.238 67.5514 271.634 67.5854 273.133 67.6195L273.099 69.1521Z"/><path fill="#323B6E" d="M39.568 47.8321C39.3637 47.8321 39.1594 47.6959 39.0912 47.4915C37.2862 42.5873 37.5246 36.9338 39.7043 32.1658C37.3203 32.7788 34.6638 33.4599 32.0754 32.7788C30.3045 32.302 28.6697 30.9057 27.9205 29.2368C27.3415 27.9427 27.3415 26.5804 27.9205 25.4565C29.1125 23.0725 32.0414 22.4935 34.766 22.2211L44.1658 21.2675C44.9491 21.1993 45.8346 21.0972 46.7201 21.0972C46.9925 21.0972 47.2309 21.3356 47.2309 21.608C47.2309 21.8805 46.9925 22.1189 46.7201 22.1189H46.686C45.8686 22.1189 45.0172 22.2211 44.2679 22.2892L34.8681 23.2428C32.4501 23.4812 29.8277 23.992 28.84 25.9333C28.2951 27.0572 28.5335 28.113 28.8741 28.8622C29.5212 30.2586 30.8834 31.4506 32.3479 31.8252C34.7319 32.4382 37.2181 31.7911 39.6021 31.1781C39.9086 31.11 40.2151 31.0078 40.5216 30.9397C40.726 30.9057 40.9303 30.9738 41.0666 31.11C41.2028 31.2803 41.2028 31.4846 41.1006 31.6549C38.6144 36.3889 38.2398 42.1786 40.0789 47.185C40.1811 47.4575 40.0448 47.7299 39.7724 47.8321C39.7043 47.8321 39.6362 47.8321 39.568 47.8321Z"/><path fill="#323B6E" d="M33.5399 23.3791C33.3015 23.3791 33.0972 23.2429 33.0291 23.0045C32.3139 20.2458 31.1219 17.6575 29.5552 15.2735C28.9422 14.3539 28.3632 13.6047 27.7502 12.9576C27.5459 12.7532 27.5459 12.4127 27.7843 12.2424C27.9886 12.038 28.3292 12.038 28.4995 12.2764C29.1465 12.9576 29.7936 13.775 30.4067 14.7286C32.0414 17.1807 33.2675 19.9053 34.0167 22.7661C34.0848 23.0385 33.9146 23.311 33.6421 23.3791C33.6421 23.345 33.574 23.3791 33.5399 23.3791Z"/><path fill="#323B6E" d="M27.5799 39.4881C26.1495 39.4881 24.7531 39.0453 23.6633 38.2279C23.4249 38.0577 23.3908 37.7171 23.5611 37.5127C23.7314 37.2743 24.072 37.2403 24.2763 37.4106C25.8089 38.6026 28.227 38.7729 30.1682 37.8874C32.1435 36.9678 33.7783 35.0266 34.8 32.4723C34.9022 32.1998 35.2087 32.0636 35.4811 32.1658C35.7536 32.2679 35.8898 32.5744 35.7877 32.8469C34.6638 35.6737 32.8587 37.7852 30.645 38.8069C29.6574 39.2497 28.6016 39.4881 27.5799 39.4881Z"/><path fill="#323B6E" d="M15.8643 40.8165C15.5918 40.8165 15.3534 40.5781 15.3534 40.3057C15.3534 40.0332 15.5918 39.7948 15.8643 39.7948C18.7251 39.7608 21.8924 39.4542 23.5271 37.3427C25.23 35.129 24.5829 31.8254 23.9699 29.5436C22.9482 25.8654 21.5859 22.2553 19.849 18.8496C19.2359 17.6235 18.4526 16.1931 17.2947 15.3077C16.92 15.0352 16.5113 14.7968 16.0686 14.6265C15.7961 14.5243 15.6599 14.2178 15.7621 13.9454C15.8643 13.6729 16.1708 13.5367 16.4432 13.6388C16.9881 13.8432 17.499 14.1156 17.9417 14.4903C19.27 15.512 20.1214 17.0446 20.8026 18.3728C22.5395 21.8466 23.9699 25.5248 24.9916 29.2711C25.6727 31.7914 26.3539 35.4014 24.3786 37.9898C22.4373 40.4078 18.9975 40.7825 15.8643 40.8165Z"/><path fill="#323B6E" d="M11.7433 42.996C10.7897 42.996 9.87011 42.7917 9.05273 42.383C6.73684 41.2591 4.96586 38.7729 4.01226 35.4353C3.94415 35.1629 4.08038 34.8904 4.35283 34.7882C4.62529 34.7201 4.89775 34.8564 4.99992 35.1288C5.51078 36.8998 6.73684 40.0671 9.49548 41.4294C10.7556 42.0424 12.3903 42.1105 13.7186 41.5656C14.7744 41.1569 15.5577 40.4077 15.8982 39.4541C16.2729 38.4664 16.1707 37.3766 16.0345 36.3208C15.3874 31.3144 13.378 26.5805 10.2788 22.6298C9.69982 21.9146 8.9165 20.9951 7.99696 20.5523C7.7245 20.4161 7.62233 20.1096 7.75856 19.8712C7.89479 19.5987 8.2013 19.4965 8.4397 19.6328C9.56359 20.1777 10.4491 21.1994 11.0962 22.0168C14.3316 26.1036 16.375 31.0419 17.0562 36.1846C17.2265 37.3766 17.2946 38.6367 16.8518 39.8287C16.4091 41.0548 15.4214 42.0084 14.0932 42.5192C13.3439 42.8598 12.5266 42.996 11.7433 42.996Z"/><path fill="#323B6E" d="M38.7506 36.7295C38.7506 36.7295 38.7166 36.7295 38.7506 36.7295C37.0137 36.6273 35.413 35.844 34.2551 34.5839C34.0507 34.3795 34.0848 34.039 34.2891 33.8687C34.4935 33.6643 34.834 33.6984 35.0043 33.9027C35.9579 34.9585 37.3202 35.6056 38.7506 35.7078C39.0231 35.7078 39.2615 35.9802 39.2274 36.2527C39.2274 36.5251 39.0231 36.7295 38.7506 36.7295Z"/><path fill="#323B6E" d="M177.977 268.285C175.831 268.285 173.72 268.115 171.608 267.638C166.704 266.514 162.378 263.96 158.189 261.439L158.973 260.111C163.06 262.563 167.249 265.083 171.914 266.139C176.887 267.263 182.166 266.65 187.172 265.935L187.376 267.467C184.345 267.91 181.144 268.285 177.977 268.285Z"/><path fill="#323B6E" d="M33.4037 87.032L33.1653 85.4994C39.0912 84.5118 44.8809 82.2981 49.9214 79.0626L50.7388 80.3568C45.528 83.6944 39.534 86.0103 33.4037 87.032Z"/><path fill="#fff" d="M132.821 427.536C132.378 429.444 131.902 431.385 131.391 433.326L131.323 433.565L98.219 433.599C97.061 431.828 96.0393 429.75 95.0857 427.502C93.1444 422.905 91.6118 417.455 90.4198 411.938C90.0793 410.44 89.7728 408.941 89.5003 407.443C88.5126 402.334 87.7974 397.362 87.2866 393.139C87.0482 391.027 86.8098 389.12 86.6735 387.451C86.2649 383.364 86.1286 380.776 86.1286 380.776L90.2836 380.674L138.27 379.311C138.27 379.277 138.951 401.278 132.821 427.536Z"/><path fill="#fff" d="M89.5004 407.443C89.7728 408.941 90.0793 410.44 90.4199 411.938C84.4258 413.539 77.4782 411.666 73.5275 406.864C69.4747 401.994 69.1001 394.263 73.0167 389.29C74.7536 387.076 77.376 385.442 80.1687 385.339C82.4846 385.271 84.6642 386.191 86.6736 387.451C86.8439 389.12 87.0482 391.061 87.2866 393.139C84.9367 390.891 80.9861 390.55 78.2955 392.389C75.7072 394.194 74.5833 397.702 75.3325 400.733C76.0818 403.764 78.568 406.285 81.4969 407.34C84.0512 408.294 86.912 408.226 89.5004 407.443Z"/><path fill="#323B6E" d="M7.80731 420.793C4.2313 410.304 2.46036 399.235 2.56253 388.166V388.064L17.2752 387.792L28.6504 387.587L44.0783 387.315V387.69C44.5551 401.415 42.0689 415.242 36.8582 427.945L10.6681 428.252C9.64641 425.8 8.6928 423.313 7.80731 420.793Z"/><path fill="#52DEE5" d="M26.7773 342.087C27.2541 357.14 28.6163 375.326 28.6845 387.519V387.621L17.3093 387.825V387.757C17.0369 384.965 16.7985 382.138 16.526 379.345C16.3217 377.2 16.0833 374.952 14.755 373.283C13.2225 371.24 9.74862 369.605 6.5813 367.595C5.01467 366.608 3.4821 365.484 2.63067 363.849C1.77924 362.214 1.81329 360.001 3.17558 358.741C4.06106 357.923 5.3893 357.651 6.5813 357.889C7.7733 358.128 8.86315 358.775 9.74864 359.592C10.6001 360.375 11.3493 361.295 12.3029 361.942C13.0863 362.487 14.4485 363.1 15.0956 362.044C15.334 361.67 15.3681 361.227 15.4021 360.784C15.4021 360.614 15.4021 360.409 15.4021 360.239C15.4362 358.502 15.0616 356.663 14.9253 354.926C14.755 352.951 14.6188 351.01 14.5507 349.034C14.3464 345.084 14.3123 341.133 14.6188 337.182C14.7891 334.935 15.1637 332.448 16.9347 331.086C19.3528 329.213 23.1672 330.643 24.836 333.198C26.5048 335.786 26.6751 339.021 26.7773 342.087Z"/><path fill="#323B6E" d="M372.838 414.186L369.773 429.171C369.33 431.249 367.525 432.747 365.414 432.781L154.293 434.722C152.59 434.756 151.33 433.088 151.841 431.453C152.42 429.512 154.225 428.183 156.234 428.183L231.228 427.366L255.647 312.219C256.533 308.064 260.143 305.066 264.4 304.964L389.22 302.172C392.626 302.104 395.18 305.203 394.499 308.506L372.838 414.186Z"/></svg>