<svg xmlns="http://www.w3.org/2000/svg" width="273" height="76" fill="none" viewBox="0 0 273 76"><path fill="#52DEE5" fill-rule="evenodd" d="M0 70L120 14.4764L55.0154 37.7487L35.0769 0L0 70ZM52.4308 59.9215V61.7539H66.4615L62.7692 54.4241L52.4308 59.9215ZM33.9692 22.7225L23.6308 47.644L42.8308 39.9476L33.9692 22.7225Z" clip-rule="evenodd"/><path fill="#52DEE5" d="M112.45 61L124.15 36.15H118.3L109.45 55.75H109.05L100.2 36.15H94.25L105.85 61H112.45ZM132.32 61V48.7C132.32 43.3 134.77 40.5 140.22 40.5C145.37 40.5 147.47 42.85 147.47 47.5V61H152.87V46.05C152.87 40.3 149.47 35.65 142.57 35.65C136.27 35.65 132.97 39.65 132.22 43.85H131.87V36.15H126.92V61H132.32ZM170.182 61.5C177.582 61.5 182.782 57.85 182.782 52.55V52.1H177.382V52.5C177.382 55.45 175.232 57.15 170.032 57.15C164.282 57.15 161.932 54.6 161.732 49.8H182.832C182.982 49.05 183.032 48.35 183.032 47.45C183.032 39.9 177.782 35.65 170.082 35.65C161.982 35.65 156.682 40.85 156.682 48.6C156.682 56.9 162.032 61.5 170.182 61.5ZM169.982 39.9C175.282 39.9 177.932 42.1 177.932 46.7V46.8H161.782C162.082 42.35 164.482 39.9 169.982 39.9ZM199.576 61.5C206.976 61.5 212.176 57.85 212.176 52.55V52.1H206.776V52.5C206.776 55.45 204.626 57.15 199.426 57.15C193.676 57.15 191.326 54.6 191.126 49.8H212.226C212.376 49.05 212.426 48.35 212.426 47.45C212.426 39.9 207.176 35.65 199.476 35.65C191.376 35.65 186.076 40.85 186.076 48.6C186.076 56.9 191.426 61.5 199.576 61.5ZM199.376 39.9C204.676 39.9 207.326 42.1 207.326 46.7V46.8H191.176C191.476 42.35 193.876 39.9 199.376 39.9ZM228.221 61.5C235.221 61.5 239.821 58.75 239.821 54.1C239.821 50 237.121 48 231.221 47.25L225.471 46.45C221.721 45.95 220.721 45.25 220.721 43.3C220.721 40.95 222.321 39.95 226.871 39.95C232.371 39.95 233.871 41.5 233.871 44.45V44.75H239.221V44.6C239.221 38.7 234.621 35.65 227.021 35.65C219.371 35.65 215.421 38.75 215.421 43.1C215.421 47.25 218.271 49.25 222.971 49.85L229.771 50.75C233.321 51.25 234.521 51.9 234.521 53.95C234.521 56.15 233.071 57.15 228.221 57.15C223.021 57.15 221.071 56.1 221.071 52.85V52.45H215.671V52.6C215.671 58.35 220.221 61.5 228.221 61.5ZM249.117 61V48.95C249.117 43.7 251.217 40.5 257.117 40.5C262.267 40.5 264.517 42.5 264.517 47.5V61H269.867V46.2C269.867 40.15 266.517 35.65 259.667 35.65C253.317 35.65 250.267 39.55 249.417 43.75H249.117V27.5H243.717V61H249.117Z"/></svg>